# xmcd CD database file
#
# Track frame offsets:
#	150
#	21129
#	36820
#	54623
#	76815
#	94889
#	110935
#	124728
#	135069
#	168099
#	189351
#	209677
#	223689
#
# Disc length: 3320 seconds
#
# Revision: 0
# Processed by: cddbd v1.5.1PL0 Copyright (c) Steve Scherf et al.
# Submitted via: CDex 1.51
#
DISCID=b00cf60d
DTITLE=John Stetch - Exponentially Monk
DYEAR=1900
DGENRE=Jazz
TTITLE0=Bright Mississippi
TTITLE1=Well, You Needn't
TTITLE2=Think Of One
TTITLE3=Green Chimneys
TTITLE4=Monk's Mood
TTITLE5=Gallop's Gallop
TTITLE6=Evidence
TTITLE7=Ugly Beauty
TTITLE8=Criss Cross
TTITLE9=Blue Monk
TTITLE10=Little Rootie Tootie
TTITLE11=Round Midnight
TTITLE12=Ask Me Now
EXTD=
EXTT0=
EXTT1=
EXTT2=
EXTT3=
EXTT4=
EXTT5=
EXTT6=
EXTT7=
EXTT8=
EXTT9=
EXTT10=
EXTT11=
EXTT12=
PLAYORDER=
